<svg width="90" height="40" viewBox="0 0 90 40" fill="none" xmlns="http://www.w3.org/2000/svg">
<path fill-rule="evenodd" clip-rule="evenodd" d="M36.7072 0.935454C36.7072 0.4116 37.1188 0 37.6426 0H43.8915C44.4153 0 44.8269 0.4116 44.8269 0.935454V4.78952C44.8269 5.31338 44.4153 5.72498 43.8915 5.72498H37.6426C37.1188 5.72498 36.7072 5.31338 36.7072 4.78952V0.935454ZM3.18054 2.31993C3.18054 1.79607 3.59214 1.38447 4.116 1.38447H10.3648C10.8887 1.38447 11.3003 1.79607 11.3003 2.31993V6.174C11.3003 6.69785 10.8887 7.10945 10.3648 7.10945H4.116C3.59214 7.10945 3.18054 6.69785 3.18054 6.174V2.31993ZM80.6361 6.9972C80.5613 6.51076 80.4864 5.65015 80.4864 5.16371V3.55473C80.4864 3.03088 80.898 2.61928 81.4219 2.61928H88.3816C88.9055 2.61928 89.3171 3.03088 89.3171 3.55473V5.16371C89.3171 5.68756 89.2423 6.51076 89.1674 6.9972L87.072 21.3283C86.9972 21.8148 86.5107 22.2264 86.0243 22.2264H83.7792C83.2554 22.2264 82.8063 21.8148 82.7315 21.3283L80.6361 6.9972ZM81.1974 25.5566C81.1974 25.0327 81.609 24.6211 82.1328 24.6211H87.6333C88.1571 24.6211 88.5687 25.0327 88.5687 25.5566V30.2713C88.5687 30.7951 88.1571 31.2067 87.6333 31.2067H82.1328C81.609 31.2067 81.1974 30.7951 81.1974 30.2713V25.5566ZM31.9925 10.1029C30.2338 8.34424 27.5397 7.40879 23.5734 7.40879C20.2058 7.40879 17.7736 7.93264 15.5285 8.75584C15.0421 8.90551 14.7427 9.42937 14.8924 9.9158L15.9775 13.6202C16.1272 14.1066 16.6511 14.406 17.1375 14.2563C18.7839 13.695 20.3555 13.3583 22.3012 13.3583C25.2946 13.3583 26.7165 14.6679 26.7165 16.9504V17.3246C25.4817 16.8756 23.4612 16.464 21.4406 16.464C16.2395 16.464 12.7596 18.8213 12.7596 23.3863V23.4612C12.7596 27.8765 16.0149 30.3087 20.2058 30.3087C23.087 30.3087 25.1824 29.1861 26.7165 27.5397V28.8868C26.7165 29.4107 27.1281 29.8223 27.652 29.8223H33.4892C34.0131 29.8223 34.4247 29.4107 34.4247 28.8868V17.1001C34.3873 13.9944 33.6763 11.7119 31.9925 10.1029ZM22.9747 25.4443C21.3657 25.4443 20.2432 24.5463 20.2432 23.0496V22.9747C20.2432 21.3283 21.5528 20.2432 23.7979 20.2432C24.9579 20.2432 26.043 20.5051 26.8288 20.8045V21.8148C26.8288 24.0224 25.2198 25.4443 22.9747 25.4443ZM67.6146 8.79326C71.5809 8.79326 74.275 9.72871 76.0336 11.4874C77.68 13.0963 78.391 15.3789 78.4284 18.4846V30.2713C78.4284 30.7951 78.0168 31.2067 77.493 31.2067H71.6557C71.1319 31.2067 70.7203 30.7951 70.7203 30.2713V28.9242C69.2235 30.608 67.1281 31.6932 64.2469 31.6932C60.0187 31.6932 56.8007 29.2984 56.8007 24.8831V24.8082C56.8007 20.2058 60.2432 17.8485 65.4443 17.8485C67.5023 17.8485 69.4855 18.26 70.7577 18.7091V18.3349C70.7577 16.0524 69.3358 14.7427 66.3423 14.7427C64.3966 14.7427 62.7876 15.0795 61.1786 15.6408C60.6922 15.7905 60.1684 15.4911 60.0187 15.0047L58.9336 11.3003C58.7839 10.8138 59.0832 10.29 59.5697 10.1403C61.8148 9.31711 64.2469 8.79326 67.6146 8.79326ZM64.2843 24.434C64.2843 25.9308 65.4069 26.8288 67.0159 26.8288C69.261 26.8288 70.8325 25.4069 70.8699 23.1992V22.1515C70.0842 21.8522 68.999 21.5903 67.8391 21.5903C65.594 21.5903 64.2843 22.6754 64.2843 24.3218V24.434ZM47.1843 4.19084C47.1843 3.66698 47.5959 3.25538 48.1197 3.25538H54.3686C54.8924 3.25538 55.304 3.66698 55.304 4.19084V8.04491C55.304 8.56876 54.8924 8.98036 54.3686 8.98036H48.1197C47.5959 8.98036 47.1843 8.56876 47.1843 8.04491V4.19084ZM48.2694 11.0009H54.1815C54.7053 11.0009 55.1169 11.4125 55.0795 11.899V32.3667C55.0795 37.942 52.1983 40 47.1843 40C46.3611 40 45.6127 39.9252 44.9392 39.8503C44.4153 39.7381 44.0037 39.4387 44.0037 38.9149V35.5472C44.0037 35.0234 44.4153 34.6118 44.9392 34.6118H45.0514C46.5482 34.6118 47.3339 33.9383 47.3339 32.0299V11.9364C47.3339 11.4125 47.7455 11.0009 48.2694 11.0009ZM4.26567 9.09261H10.1777C10.7016 9.09261 11.1132 9.50421 11.1132 10.0281V30.2339C11.1132 35.8092 8.23199 37.8672 3.21796 37.8672C2.35734 37.8672 1.60898 37.7923 0.935454 37.7175C0.4116 37.6052 0 37.3059 0 36.782V33.4144C0 32.8905 0.4116 32.4789 0.935454 32.4789H1.04771C2.54443 32.4789 3.33022 31.8054 3.33022 29.8971V10.0281C3.33022 9.50421 3.74181 9.09261 4.26567 9.09261ZM37.7923 7.70813H43.7044C44.1908 7.70813 44.6398 8.11973 44.6024 8.64359V29.0739C44.6024 34.6492 41.7212 36.7072 36.7072 36.7072C35.884 36.7072 35.1356 36.6324 34.4621 36.5575C33.9382 36.4453 33.5266 36.1459 33.5266 35.6221V32.2544C33.5266 31.7306 33.9382 31.319 34.4621 31.319H34.5744C36.0711 31.319 36.8569 30.6455 36.8569 28.7371V8.64359C36.8569 8.11973 37.2685 7.70813 37.7923 7.70813Z" fill="#0B1118"/>
</svg>
